<?xml version="1.0" standalone="no"?><!-- Generator: Gravit.io --><svg xmlns="http://www.w3.org/2000/svg" xmlns:xlink="http://www.w3.org/1999/xlink" style="isolation:isolate" viewBox="0 0 1366 786" width="1366" height="786"><defs><clipPath id="_clipPath_nRLWN2np3uscpmMmoAFJMItHgFV2IxBj"><rect width="1366" height="786"/></clipPath></defs><g clip-path="url(#_clipPath_nRLWN2np3uscpmMmoAFJMItHgFV2IxBj)"><rect width="1366" height="786" style="fill:rgb(249,249,249)"/><path d="M 5.505 -231.418 L 465.607 126.81 C 488.458 144.601 492.565 177.597 474.774 200.448 L 261.969 473.771 C 244.177 496.622 211.181 500.729 188.331 482.938 L -271.771 124.71 C -294.622 106.918 -298.729 73.922 -280.938 51.072 L -68.133 -222.251 C -50.342 -245.102 -17.345 -249.21 5.505 -231.418 Z" style="stroke:none;fill:#FFFFFF;stroke-miterlimit:10;"/><path d=" M 1003.718 578 L 883.188 475.544 L 719 455.852 L 779.195 309.56 L 747.187 147.323 L 904.921 159.365 L 1049.326 78.789 L 1086.615 232.524 L 1207.871 344.963 L 1073.184 427.933 L 1003.718 578 Z " fill="rgb(255,255,255)"/></g></svg>